<mxfile host="app.diagrams.net" agent="Mozilla/5.0 (Windows NT 10.0; Win64; x64) AppleWebKit/537.36 (KHTML, like Gecko) Chrome/133.0.0.0 Safari/537.36" version="26.0.11">
  <diagram id="C5RBs43oDa-KdzZeNtuy" name="Page-1">
    <mxGraphModel dx="1221" dy="725" grid="1" gridSize="10" guides="1" tooltips="1" connect="1" arrows="1" fold="1" page="1" pageScale="1" pageWidth="827" pageHeight="1169" math="0" shadow="0">
      <root>
        <mxCell id="WIyWlLk6GJQsqaUBKTNV-0" />
        <mxCell id="WIyWlLk6GJQsqaUBKTNV-1" parent="WIyWlLk6GJQsqaUBKTNV-0" />
        <mxCell id="FgcsR2utBdho2wcDTlo_-0" style="edgeStyle=orthogonalEdgeStyle;rounded=0;orthogonalLoop=1;jettySize=auto;html=1;" edge="1" parent="WIyWlLk6GJQsqaUBKTNV-1">
          <mxGeometry relative="1" as="geometry">
            <mxPoint x="390" y="30" as="targetPoint" />
            <mxPoint x="390" y="30" as="sourcePoint" />
          </mxGeometry>
        </mxCell>
        <mxCell id="FgcsR2utBdho2wcDTlo_-1" value="&lt;span style=&quot;color: rgb(31, 35, 40); font-family: ui-monospace, SFMono-Regular, &amp;quot;SF Mono&amp;quot;, Menlo, Consolas, &amp;quot;Liberation Mono&amp;quot;, monospace; font-size: 13.6px; text-align: start; white-space-collapse: break-spaces; background-color: rgba(129, 139, 152, 0.12);&quot;&gt;public static void sortArray(int[] myArr, int arrSize)&lt;/span&gt;&lt;div&gt;&lt;span style=&quot;color: rgb(31, 35, 40); font-family: ui-monospace, SFMono-Regular, &amp;quot;SF Mono&amp;quot;, Menlo, Consolas, &amp;quot;Liberation Mono&amp;quot;, monospace; font-size: 13.6px; text-align: start; white-space-collapse: break-spaces; background-color: rgba(129, 139, 152, 0.12);&quot;&gt;&lt;br&gt;&lt;/span&gt;&lt;/div&gt;&lt;div&gt;&lt;span style=&quot;color: rgb(31, 35, 40); font-family: ui-monospace, SFMono-Regular, &amp;quot;SF Mono&amp;quot;, Menlo, Consolas, &amp;quot;Liberation Mono&amp;quot;, monospace; font-size: 13.6px; text-align: start; white-space-collapse: break-spaces; background-color: rgba(129, 139, 152, 0.12);&quot;&gt;-start with this, then create main&lt;/span&gt;&lt;/div&gt;" style="rounded=0;whiteSpace=wrap;html=1;" vertex="1" parent="WIyWlLk6GJQsqaUBKTNV-1">
          <mxGeometry x="250" y="50" width="180" height="160" as="geometry" />
        </mxCell>
        <mxCell id="FgcsR2utBdho2wcDTlo_-2" value="" style="endArrow=classic;html=1;rounded=0;exitX=0.5;exitY=1;exitDx=0;exitDy=0;" edge="1" parent="WIyWlLk6GJQsqaUBKTNV-1" source="FgcsR2utBdho2wcDTlo_-1">
          <mxGeometry width="50" height="50" relative="1" as="geometry">
            <mxPoint x="290" y="400" as="sourcePoint" />
            <mxPoint x="337.8571428571429" y="270" as="targetPoint" />
          </mxGeometry>
        </mxCell>
        <mxCell id="FgcsR2utBdho2wcDTlo_-5" value="" style="edgeStyle=orthogonalEdgeStyle;rounded=0;orthogonalLoop=1;jettySize=auto;html=1;" edge="1" parent="WIyWlLk6GJQsqaUBKTNV-1" source="FgcsR2utBdho2wcDTlo_-4" target="FgcsR2utBdho2wcDTlo_-1">
          <mxGeometry relative="1" as="geometry" />
        </mxCell>
        <mxCell id="FgcsR2utBdho2wcDTlo_-4" value="1. Assign each array element from myArr param to an integer value with max elements of arrSize-1.&lt;div&gt;&lt;br&gt;&lt;/div&gt;&lt;div&gt;2. Iterate through each array element to determine highest to lowest value&lt;/div&gt;&lt;div&gt;3. Professor suggested bubble sort(check notes from 190 re bubble sort)&lt;/div&gt;&lt;div&gt;4. re. sorting algo not sure on memory efficiency(wasn&#39;t taught this in 190)&lt;/div&gt;" style="rounded=1;whiteSpace=wrap;html=1;" vertex="1" parent="WIyWlLk6GJQsqaUBKTNV-1">
          <mxGeometry x="180" y="280" width="320" height="140" as="geometry" />
        </mxCell>
        <mxCell id="FgcsR2utBdho2wcDTlo_-6" value="" style="endArrow=classic;html=1;rounded=0;exitX=0.455;exitY=1.011;exitDx=0;exitDy=0;exitPerimeter=0;" edge="1" parent="WIyWlLk6GJQsqaUBKTNV-1" source="FgcsR2utBdho2wcDTlo_-4" target="FgcsR2utBdho2wcDTlo_-7">
          <mxGeometry width="50" height="50" relative="1" as="geometry">
            <mxPoint x="310" y="470" as="sourcePoint" />
            <mxPoint x="326" y="480" as="targetPoint" />
          </mxGeometry>
        </mxCell>
        <mxCell id="FgcsR2utBdho2wcDTlo_-7" value="For main method will need to allow user input and create an array assigned to user input.&lt;div&gt;&lt;br&gt;&lt;/div&gt;&lt;div&gt;call sortArray method&lt;/div&gt;&lt;div&gt;print elements from sorted array&lt;/div&gt;" style="rounded=1;whiteSpace=wrap;html=1;" vertex="1" parent="WIyWlLk6GJQsqaUBKTNV-1">
          <mxGeometry x="210" y="450" width="230" height="90" as="geometry" />
        </mxCell>
      </root>
    </mxGraphModel>
  </diagram>
</mxfile>
